g teste
v 0.162636 0.000000 -0.600500
v 0.527106 0.000000 -0.600500
v 0.534934 0.000000 -0.600257
v 0.542570 0.000000 -0.599527
v 0.550016 0.000000 -0.598311
v 0.557270 0.000000 -0.596608
v 0.564333 0.000000 -0.594419
v 0.571205 0.000000 -0.591743
v 0.577886 0.000000 -0.588581
v 0.584376 0.000000 -0.584932
v 0.590675 0.000000 -0.580796
v 0.596782 0.000000 -0.576175
v 0.602698 0.000000 -0.571066
v 0.608424 0.000000 -0.565471
v 0.613819 0.000000 -0.559546
v 0.618745 0.000000 -0.553447
v 0.623202 0.000000 -0.547175
v 0.627189 0.000000 -0.540728
v 0.630708 0.000000 -0.534108
v 0.633757 0.000000 -0.527314
v 0.636338 0.000000 -0.520347
v 0.638449 0.000000 -0.513206
v 0.640091 0.000000 -0.505890
v 0.641264 0.000000 -0.498401
v 0.641967 0.000000 -0.490739
v 0.642202 0.000000 -0.482902
v 0.642202 0.000000 -0.118432
v 0.641967 0.000000 -0.110593
v 0.641264 0.000000 -0.102921
v 0.640091 0.000000 -0.095418
v 0.638449 0.000000 -0.088083
v 0.636338 0.000000 -0.080915
v 0.633757 0.000000 -0.073916
v 0.630708 0.000000 -0.067084
v 0.627189 0.000000 -0.060421
v 0.623202 0.000000 -0.053925
v 0.618745 0.000000 -0.047598
v 0.613819 0.000000 -0.041438
v 0.608424 0.000000 -0.035446
v 0.602698 0.000000 -0.029785
v 0.596782 0.000000 -0.024615
v 0.590675 0.000000 -0.019938
v 0.584376 0.000000 -0.015754
v 0.577886 0.000000 -0.012062
v 0.571205 0.000000 -0.008862
v 0.564333 0.000000 -0.006154
v 0.557270 0.000000 -0.003938
v 0.550016 0.000000 -0.002215
v 0.542570 0.000000 -0.000985
v 0.534934 0.000000 -0.000246
v 0.527106 0.000000 0.000000
v 0.162636 0.000000 0.000000
v 0.154808 0.000000 -0.000246
v 0.147171 0.000000 -0.000985
v 0.139726 0.000000 -0.002215
v 0.132472 0.000000 -0.003938
v 0.125408 0.000000 -0.006154
v 0.118536 0.000000 -0.008862
v 0.111855 0.000000 -0.012062
v 0.105366 0.000000 -0.015754
v 0.099067 0.000000 -0.019938
v 0.092959 0.000000 -0.024615
v 0.087043 0.000000 -0.029785
v 0.081318 0.000000 -0.035446
v 0.075923 0.000000 -0.041438
v 0.070997 0.000000 -0.047598
v 0.066540 0.000000 -0.053925
v 0.062552 0.000000 -0.060421
v 0.059034 0.000000 -0.067084
v 0.055984 0.000000 -0.073916
v 0.053404 0.000000 -0.080915
v 0.051293 0.000000 -0.088083
v 0.049651 0.000000 -0.095418
v 0.048478 0.000000 -0.102921
v 0.047774 0.000000 -0.110593
v 0.047540 0.000000 -0.118432
v 0.047540 0.000000 -0.482902
v 0.047774 0.000000 -0.490739
v 0.048478 0.000000 -0.498401
v 0.049651 0.000000 -0.505890
v 0.051293 0.000000 -0.513206
v 0.053404 0.000000 -0.520347
v 0.055984 0.000000 -0.527314
v 0.059034 0.000000 -0.534108
v 0.062552 0.000000 -0.540728
v 0.066540 0.000000 -0.547175
v 0.070997 0.000000 -0.553447
v 0.075923 0.000000 -0.559546
v 0.081318 0.000000 -0.565471
v 0.087043 0.000000 -0.571066
v 0.092959 0.000000 -0.576175
v 0.099067 0.000000 -0.580797
v 0.105366 0.000000 -0.584932
v 0.111855 0.000000 -0.588581
v 0.118536 0.000000 -0.591743
v 0.125408 0.000000 -0.594419
v 0.132472 0.000000 -0.596608
v 0.139726 0.000000 -0.598311
v 0.147171 0.000000 -0.599527
v 0.154808 0.000000 -0.600257
v 0.483736 0.000000 -0.488741
v 0.162636 0.000000 -0.488741
v 0.161703 0.000000 -0.488700
v 0.160852 0.000000 -0.488578
v 0.160081 0.000000 -0.488376
v 0.159392 0.000000 -0.488092
v 0.158784 0.000000 -0.487727
v 0.158257 0.000000 -0.487281
v 0.157811 0.000000 -0.486754
v 0.157446 0.000000 -0.486146
v 0.157162 0.000000 -0.485457
v 0.156960 0.000000 -0.484686
v 0.156838 0.000000 -0.483835
v 0.156797 0.000000 -0.482902
v 0.156797 0.000000 -0.214345
v 0.206005 0.000000 -0.112594
v 0.527106 0.000000 -0.112594
v 0.528038 0.000000 -0.112634
v 0.528890 0.000000 -0.112756
v 0.529660 0.000000 -0.112959
v 0.530349 0.000000 -0.113243
v 0.530958 0.000000 -0.113607
v 0.531485 0.000000 -0.114053
v 0.531931 0.000000 -0.114580
v 0.532295 0.000000 -0.115189
v 0.532579 0.000000 -0.115878
v 0.532782 0.000000 -0.116648
v 0.532904 0.000000 -0.117500
v 0.532944 0.000000 -0.118432
v 0.532944 0.000000 -0.386989
vn -0.0000 1.0000 -0.0000
vt 0.000000 0.000000
vt 0.007752 0.000000
vt 0.015504 0.000000
vt 0.023256 0.000000
vt 0.031008 0.000000
vt 0.038760 0.000000
vt 0.046512 0.000000
vt 0.054264 0.000000
vt 0.062016 0.000000
vt 0.069767 0.000000
vt 0.077519 0.000000
vt 0.085271 0.000000
vt 0.093023 0.000000
vt 0.100775 0.000000
vt 0.108527 0.000000
vt 0.116279 0.000000
vt 0.124031 0.000000
vt 0.131783 0.000000
vt 0.139535 0.000000
vt 0.147287 0.000000
vt 0.155039 0.000000
vt 0.162791 0.000000
vt 0.170543 0.000000
vt 0.178295 0.000000
vt 0.186047 0.000000
vt 0.193798 0.000000
vt 0.201550 0.000000
vt 0.209302 0.000000
vt 0.217054 0.000000
vt 0.224806 0.000000
vt 0.232558 0.000000
vt 0.240310 0.000000
vt 0.248062 0.000000
vt 0.255814 0.000000
vt 0.263566 0.000000
vt 0.271318 0.000000
vt 0.279070 0.000000
vt 0.286822 0.000000
vt 0.294574 0.000000
vt 0.302326 0.000000
vt 0.310078 0.000000
vt 0.317829 0.000000
vt 0.325581 0.000000
vt 0.333333 0.000000
vt 0.341085 0.000000
vt 0.348837 0.000000
vt 0.356589 0.000000
vt 0.364341 0.000000
vt 0.372093 0.000000
vt 0.379845 0.000000
vt 0.387597 0.000000
vt 0.395349 0.000000
vt 0.403101 0.000000
vt 0.410853 0.000000
vt 0.418605 0.000000
vt 0.426357 0.000000
vt 0.434109 0.000000
vt 0.441860 0.000000
vt 0.449612 0.000000
vt 0.457364 0.000000
vt 0.465116 0.000000
vt 0.472868 0.000000
vt 0.480620 0.000000
vt 0.488372 0.000000
vt 0.496124 0.000000
vt 0.503876 0.000000
vt 0.511628 0.000000
vt 0.519380 0.000000
vt 0.527132 0.000000
vt 0.534884 0.000000
vt 0.542636 0.000000
vt 0.550388 0.000000
vt 0.558140 0.000000
vt 0.565891 0.000000
vt 0.573643 0.000000
vt 0.581395 0.000000
vt 0.589147 0.000000
vt 0.596899 0.000000
vt 0.604651 0.000000
vt 0.612403 0.000000
vt 0.620155 0.000000
vt 0.627907 0.000000
vt 0.635659 0.000000
vt 0.643411 0.000000
vt 0.651163 0.000000
vt 0.658915 0.000000
vt 0.666667 0.000000
vt 0.674419 0.000000
vt 0.682171 0.000000
vt 0.689922 0.000000
vt 0.697674 0.000000
vt 0.705426 0.000000
vt 0.713178 0.000000
vt 0.720930 0.000000
vt 0.728682 0.000000
vt 0.736434 0.000000
vt 0.744186 0.000000
vt 0.751938 0.000000
vt 0.759690 0.000000
vt 0.767442 0.000000
vt 0.775194 0.000000
vt 0.782946 0.000000
vt 0.790698 0.000000
vt 0.798450 0.000000
vt 0.806202 0.000000
vt 0.813953 0.000000
vt 0.821705 0.000000
vt 0.829457 0.000000
vt 0.837209 0.000000
vt 0.844961 0.000000
vt 0.852713 0.000000
vt 0.860465 0.000000
vt 0.868217 0.000000
vt 0.875969 0.000000
vt 0.883721 0.000000
vt 0.891473 0.000000
vt 0.899225 0.000000
vt 0.906977 0.000000
vt 0.914729 0.000000
vt 0.922481 0.000000
vt 0.930233 0.000000
vt 0.937984 0.000000
vt 0.945736 0.000000
vt 0.953488 0.000000
vt 0.961240 0.000000
vt 0.968992 0.000000
vt 0.976744 0.000000
vt 0.984496 0.000000
vt 0.992248 0.000000
vt 1.000000 0.000000
s 0
f 100/100/1 2/2/1 1/1/1
f 100/100/1 3/3/1 2/2/1
f 99/99/1 3/3/1 100/100/1
f 99/99/1 4/4/1 3/3/1
f 98/98/1 4/4/1 99/99/1
f 98/98/1 5/5/1 4/4/1
f 97/97/1 5/5/1 98/98/1
f 97/97/1 6/6/1 5/5/1
f 96/96/1 6/6/1 97/97/1
f 96/96/1 7/7/1 6/6/1
f 95/95/1 7/7/1 96/96/1
f 95/95/1 8/8/1 7/7/1
f 94/94/1 8/8/1 95/95/1
f 94/94/1 9/9/1 8/8/1
f 93/93/1 9/9/1 94/94/1
f 93/93/1 10/10/1 9/9/1
f 92/92/1 10/10/1 93/93/1
f 92/92/1 11/11/1 10/10/1
f 91/91/1 11/11/1 92/92/1
f 91/91/1 12/12/1 11/11/1
f 90/90/1 12/12/1 91/91/1
f 90/90/1 13/13/1 12/12/1
f 89/89/1 13/13/1 90/90/1
f 89/89/1 14/14/1 13/13/1
f 88/88/1 14/14/1 89/89/1
f 88/88/1 15/15/1 14/14/1
f 87/87/1 15/15/1 88/88/1
f 87/87/1 16/16/1 15/15/1
f 86/86/1 16/16/1 87/87/1
f 86/86/1 17/17/1 16/16/1
f 85/85/1 17/17/1 86/86/1
f 85/85/1 18/18/1 17/17/1
f 84/84/1 18/18/1 85/85/1
f 84/84/1 19/19/1 18/18/1
f 83/83/1 19/19/1 84/84/1
f 83/83/1 20/20/1 19/19/1
f 82/82/1 20/20/1 83/83/1
f 82/82/1 21/21/1 20/20/1
f 81/81/1 21/21/1 82/82/1
f 81/81/1 22/22/1 21/21/1
f 80/80/1 22/22/1 81/81/1
f 80/80/1 23/23/1 22/22/1
f 79/79/1 23/23/1 80/80/1
f 79/79/1 24/24/1 23/23/1
f 79/79/1 25/25/1 24/24/1
f 78/78/1 25/25/1 79/79/1
f 78/78/1 101/101/1 25/25/1
f 101/101/1 26/26/1 25/25/1
f 77/77/1 103/103/1 78/78/1
f 103/103/1 102/102/1 78/78/1
f 102/102/1 101/101/1 78/78/1
f 115/115/1 26/26/1 101/101/1
f 77/77/1 104/104/1 103/103/1
f 77/77/1 105/105/1 104/104/1
f 77/77/1 106/106/1 105/105/1
f 77/77/1 107/107/1 106/106/1
f 77/77/1 108/108/1 107/107/1
f 77/77/1 109/109/1 108/108/1
f 77/77/1 110/110/1 109/109/1
f 77/77/1 111/111/1 110/110/1
f 77/77/1 112/112/1 111/111/1
f 77/77/1 113/113/1 112/112/1
f 77/77/1 114/114/1 113/113/1
f 76/76/1 114/114/1 77/77/1
f 76/76/1 115/115/1 114/114/1
f 115/115/1 130/130/1 26/26/1
f 130/130/1 27/27/1 26/26/1
f 115/115/1 116/116/1 130/130/1
f 129/129/1 27/27/1 130/130/1
f 76/76/1 116/116/1 115/115/1
f 75/75/1 116/116/1 76/76/1
f 128/128/1 27/27/1 129/129/1
f 128/128/1 28/28/1 27/27/1
f 127/127/1 28/28/1 128/128/1
f 126/126/1 28/28/1 127/127/1
f 125/125/1 28/28/1 126/126/1
f 124/124/1 28/28/1 125/125/1
f 123/123/1 28/28/1 124/124/1
f 122/122/1 28/28/1 123/123/1
f 121/121/1 28/28/1 122/122/1
f 120/120/1 28/28/1 121/121/1
f 119/119/1 28/28/1 120/120/1
f 118/118/1 28/28/1 119/119/1
f 117/117/1 28/28/1 118/118/1
f 75/75/1 117/117/1 116/116/1
f 75/75/1 28/28/1 117/117/1
f 74/74/1 28/28/1 75/75/1
f 74/74/1 29/29/1 28/28/1
f 73/73/1 29/29/1 74/74/1
f 73/73/1 30/30/1 29/29/1
f 72/72/1 30/30/1 73/73/1
f 72/72/1 31/31/1 30/30/1
f 71/71/1 31/31/1 72/72/1
f 71/71/1 32/32/1 31/31/1
f 70/70/1 32/32/1 71/71/1
f 70/70/1 33/33/1 32/32/1
f 69/69/1 33/33/1 70/70/1
f 69/69/1 34/34/1 33/33/1
f 68/68/1 34/34/1 69/69/1
f 68/68/1 35/35/1 34/34/1
f 67/67/1 35/35/1 68/68/1
f 67/67/1 36/36/1 35/35/1
f 66/66/1 36/36/1 67/67/1
f 66/66/1 37/37/1 36/36/1
f 65/65/1 37/37/1 66/66/1
f 65/65/1 38/38/1 37/37/1
f 64/64/1 38/38/1 65/65/1
f 64/64/1 39/39/1 38/38/1
f 63/63/1 39/39/1 64/64/1
f 63/63/1 40/40/1 39/39/1
f 63/63/1 41/41/1 40/40/1
f 62/62/1 41/41/1 63/63/1
f 62/62/1 42/42/1 41/41/1
f 61/61/1 42/42/1 62/62/1
f 60/60/1 42/42/1 61/61/1
f 60/60/1 43/43/1 42/42/1
f 59/59/1 43/43/1 60/60/1
f 59/59/1 44/44/1 43/43/1
f 58/58/1 44/44/1 59/59/1
f 58/58/1 45/45/1 44/44/1
f 57/57/1 45/45/1 58/58/1
f 57/57/1 46/46/1 45/45/1
f 56/56/1 46/46/1 57/57/1
f 56/56/1 47/47/1 46/46/1
f 55/55/1 47/47/1 56/56/1
f 55/55/1 48/48/1 47/47/1
f 54/54/1 48/48/1 55/55/1
f 54/54/1 49/49/1 48/48/1
f 53/53/1 49/49/1 54/54/1
f 53/53/1 50/50/1 49/49/1
f 52/52/1 50/50/1 53/53/1
f 52/52/1 51/51/1 50/50/1
