# Blender 3.3.0
# www.blender.org
g skybox
v -1.000000 -1.000000 1.000000
v -1.000000 1.000000 1.000000
v -1.000000 -1.000000 -1.000000
v -1.000000 1.000000 -1.000000
v 1.000000 -1.000000 1.000000
v 1.000000 1.000000 1.000000
v 1.000000 -1.000000 -1.000000
v 1.000000 1.000000 -1.000000
vn -1.0000 -0.0000 -0.0000
vn -0.0000 -0.0000 -1.0000
vn 1.0000 -0.0000 -0.0000
vn -0.0000 -0.0000 1.0000
vn -0.0000 -1.0000 -0.0000
vn -0.0000 1.0000 -0.0000
vt 0.660821 -0.000314
vt 0.001236 0.698824
vt 0.001236 0.343829
vt 0.660821 0.299626
vt 0.001236 0.998764
vt 0.700374 0.651520
vt 0.360881 -0.000314
vt 0.998764 0.700374
vt 0.301176 0.343829
vt 0.360881 0.299626
vt 0.998764 1.000314
vt 1.000314 0.651520
vt 0.351580 0.698824
vt 0.301176 0.698824
vt 0.001236 0.643769
vt 0.351580 0.998764
vt 0.301176 0.998764
vt 0.700374 0.351580
vt 0.698824 0.700374
vt 0.651520 0.698824
vt 0.301176 0.643769
vt 0.698824 1.000314
vt 0.651520 0.998764
vt 1.000314 0.351580
f 1/1/1 2/4/1 4/10/1 3/7/1
f 3/8/2 4/11/2 8/22/2 7/19/2
f 7/20/3 8/23/3 6/16/3 5/13/3
f 5/14/4 6/17/4 2/5/4 1/2/4
f 3/9/5 7/21/5 5/15/5 1/3/5
f 8/24/6 4/12/6 2/6/6 6/18/6
